<svg xmlns="http://www.w3.org/2000/svg" fill="none" viewBox="0 0 385 650">
	<path fill="#23272B" d="M384.4 425.7v88h-19.7v-84.4l-2.8-3.6h-69.1l-2.9 3.6v84.3h-19.7v-87.9H287l2.8-3.5V407h74.8v15.2l2.8 3.5h17Z"/>
	<path fill="#546FEF" d="M0 407v106.6h114.2v-22.2H79.8v-28.2H45.5v-28H11.2V407H0Z"/>
	<path fill="#23272B" d="M154.6 498.7v15h95v-18.5h-92.4l-2.3-3V407h-19.6v88.2H152l2.7 3.5Z"/>
	<path fill="#7EDE8F" d="m113.5 144.8-51 95a6 6 0 0 1-10.7 0l-51-95A6 6 0 0 1 6 136h102.2a6 6 0 0 1 5.3 8.8Z"/>
	<path fill="#23272B" d="M384.4 243v-18.5h-95.8v-26H371v-18.2h-82.5v-25.8h95.8V136h-114v107h114ZM153.7 189.5v-31.7l2.7-3.6h72l2.8 3.6v28.4l-2.4 3.3h-75Zm0 18.2h44v15.1L223 243h14.4v-15l-25.7-20.2h19.5V193l2.6-3.5h15.6v-35.3h-15.8l-2.4-3.1V136h-77.5v15l-2.3 3.2h-15.9V243h18.2v-35.2Z"/>
	<path fill="#546FEF" d="m383.7 280.2-51.1 95a6 6 0 0 1-10.6 0l-51-95a6 6 0 0 1 5.2-8.8h102.2a6 6 0 0 1 5.3 8.8Z"/>
	<path fill="#23272B" d="M135.5 378.4h114v-18.5h-95.8v-22.5l2.6-3.4h79.9v-18.2h-80l-2.5-3.4v-22.5h95.8v-18.5h-114V316h15.7l2.5 3.2v11.6l-2.5 3.3h-15.7v44.4Z"/>
	<path fill="#1E1E1E" d="M19 289.7h73.2l2.8 3.6v63.2l-2.8 3.6H19v-70.4Zm76 88.7v-15.1l2.5-3.2h16.6v-70.4H97.5l-2.5-3.2v-15H0v106.9h95Z"/>
	<path fill="#7EDE8F" d="M270.2 649.2h114.2v-107h-23.9v32.5h-30v32H300.2v32h-30l-.1.1v10.4Z"/>
	<path fill="#23272B" d="m153.6 563.9 2.6-3.4h72.7l2.4 3.3v64L229 631h-72.7l-2.6-3.4V564Zm77.7-6.9v-14.7h-77.7V557l-2.5 3.4h-15.7V631H151l2.5 3.4v14.8h77.7v-14.7l2.6-3.5h15.6v-70.5H234l-2.6-3.5ZM95.2 630.8H79.8l-2.6-3.5v-18.7l-30.3-47.9h-7.8l-2.5-3.3v-15.1H0v107h18.1v-88.6h16l2.5 3.4v17.3l30.9 49.4h7.2l2.5 3.3v15.1h36.1v-107H95.2v88.6ZM153.7 106.5h95.8v-18h-95.8V66l2.5-3.4h80V44.4h-80l-2.5-3.4V18.5h95.8V0h-114v44.4H151l2.6 3.3v11.6l-2.5 3.3h-15.8v44h18.3Z"/>
	<path fill="#7EDE8F" d="M270.2 0h114.2v106.5h-23.9v-32h-30v-32H300.2v-32h-30.1V0Z"/>
	<path fill="#23272B" d="M95.9 53.4H18.2l.2-35.2h77.5v35.2ZM0 0v106.5h18.2V71.6h95.9V0H0ZM302 475.4h51.7V457H302v18.4Z"/>
</svg>
