<svg xmlns="http://www.w3.org/2000/svg" fill="none" viewBox="0 0 184 46">
	<path fill="#7EDE8F" d="M.4 45.3V.2h12.5v4.7H5.5v35.7h7.4v4.7H.4Zm170.2 0v-4.7h7.4V4.9h-7.4V.2H183v45h-12.5Z"/>
	<path fill="#546FEF" d="M23.8 40V5h11.5c2.3 0 4.2.4 5.9 1.3A9 9 0 0 1 45 10c1 1.5 1.4 3.4 1.4 5.5s-.5 4-1.4 5.6a9.4 9.4 0 0 1-4 3.7c-1.6.8-3.5 1.3-5.8 1.3H29V40h-5.2ZM29 21.4h6.3c1.8 0 3.2-.5 4.3-1.6 1-1 1.6-2.5 1.6-4.3 0-1.8-.6-3.2-1.6-4.3-1.1-1-2.5-1.6-4.3-1.6H29v11.8Z"/>
	<path fill="#fff" d="M52.6 40V5h11c2.2 0 4.1.4 5.7 1.3a9 9 0 0 1 3.8 3.5c1 1.5 1.4 3.4 1.4 5.4 0 2.4-.6 4.4-1.8 6.1A9.5 9.5 0 0 1 68 25L75 40h-5.9l-6.4-14.4h-5V40h-5.1Zm5.2-19h5.8c1.7 0 3-.5 4.1-1.5 1-1 1.6-2.4 1.6-4.2 0-1.8-.6-3.2-1.6-4.2s-2.4-1.5-4.1-1.5h-5.8V21Zm23.5 19V5h9.8c2.3 0 4.3.4 6 1.3 1.7.9 3 2.1 4 3.7s1.4 3.5 1.4 5.7v13.5c0 2.2-.5 4-1.4 5.7a9.6 9.6 0 0 1-4 3.8 13 13 0 0 1-6 1.3h-9.8Zm5.2-4.7h4.6c2 0 3.4-.5 4.5-1.6a6 6 0 0 0 1.7-4.5V15.7c0-1.9-.5-3.3-1.7-4.4-1-1-2.6-1.6-4.5-1.6h-4.6v25.6Zm24.9 4.7V5h5.1v30.2H132V40h-20.5Zm27.4 0V5h6.5L155.5 34a564 564 0 0 0-.4-7.3V5h4.7v35h-6.5L143 10.9a126.2 126.2 0 0 1 .5 10.7V40h-4.8Z"/>
</svg>
