<svg width="184" height="46" viewBox="0 0 184 46" fill="none" xmlns="http://www.w3.org/2000/svg">
<path d="M0.36 45.28V0.159998H12.936V4.864H5.496V40.576H12.936V45.28H0.36ZM170.552 45.28V40.576H177.992V4.864H170.552V0.159998H183.128V45.28H170.552Z" fill="#7EDE8F"/>
<path d="M23.8133 40V4.96H35.2853C37.5573 4.96 39.5253 5.392 41.1893 6.256C42.8853 7.12 44.1813 8.352 45.0773 9.952C46.0053 11.52 46.4693 13.376 46.4693 15.52C46.4693 17.632 46.0053 19.488 45.0773 21.088C44.1493 22.688 42.8533 23.92 41.1893 24.784C39.5253 25.648 37.5573 26.08 35.2853 26.08H28.9973V40H23.8133ZM28.9973 21.424H35.2853C37.0773 21.424 38.5013 20.896 39.5573 19.84C40.6453 18.752 41.1893 17.312 41.1893 15.52C41.1893 13.696 40.6453 12.256 39.5573 11.2C38.5013 10.144 37.0773 9.616 35.2853 9.616H28.9973V21.424Z" fill="#546FEF"/>
<path d="M52.5945 40V4.96H63.5865C65.7945 4.96 67.7145 5.392 69.3465 6.256C70.9785 7.088 72.2425 8.272 73.1385 9.808C74.0665 11.344 74.5305 13.152 74.5305 15.232C74.5305 17.568 73.9225 19.6 72.7065 21.328C71.5225 23.024 69.9065 24.224 67.8585 24.928L75.0105 40H69.1065L62.7225 25.6H57.7785V40H52.5945ZM57.7785 21.04H63.5865C65.3145 21.04 66.6905 20.528 67.7145 19.504C68.7385 18.448 69.2505 17.056 69.2505 15.328C69.2505 13.536 68.7385 12.128 67.7145 11.104C66.6905 10.08 65.3145 9.568 63.5865 9.568H57.7785V21.04ZM81.3278 40V4.96H91.1198C93.4238 4.96 95.4238 5.408 97.1198 6.304C98.8158 7.168 100.128 8.4 101.056 10C102.016 11.6 102.496 13.488 102.496 15.664V29.248C102.496 31.392 102.016 33.28 101.056 34.912C100.128 36.544 98.8158 37.808 97.1198 38.704C95.4238 39.568 93.4238 40 91.1198 40H81.3278ZM86.5118 35.296H91.1198C93.0398 35.296 94.5438 34.768 95.6318 33.712C96.7518 32.624 97.3118 31.136 97.3118 29.248V15.664C97.3118 13.808 96.7518 12.352 95.6318 11.296C94.5438 10.208 93.0398 9.664 91.1198 9.664H86.5118V35.296ZM111.357 40V4.96H116.541V35.248H131.853V40H111.357ZM138.794 40V4.96H145.322L155.546 34.096C155.482 33.168 155.402 32.064 155.306 30.784C155.21 29.504 155.13 28.176 155.066 26.8C155.034 25.424 155.018 24.176 155.018 23.056V4.96H159.818V40H153.29L143.114 10.864C143.178 11.696 143.242 12.736 143.306 13.984C143.402 15.232 143.466 16.528 143.498 17.872C143.562 19.216 143.594 20.464 143.594 21.616V40H138.794Z" fill="white"/>
</svg>
