<svg xmlns="http://www.w3.org/2000/svg" fill="none" viewBox="0 0 1180 790">
	<path fill="#95DC96" d="M906 129V0h32.3v40.3h32.2v40.3h32.3V121h32.2v8.1H906ZM0 790V661h32.3v40.3h32.2v40.3h32.3V782H129v8.1H0Z"/>
	<path fill="#5470E5" d="M699 617v129h-32.3v-40.3h-32.2v-40.3h-32.3V625H570V617h129Z"/>
	<path fill="#95DC96" d="M425 625V496h32.3v40.3h32.2v40.3h32.3V617H554v8.1H425ZM982 387v129h-32.3v-40.3h-32.2v-40.3h-32.3V395H853V387h129Z"/>
	<path fill="#5470E5" d="M1127 661v129h-32.3v-40.3h-32.2v-40.3h-32.3V669H998V661h129ZM155 554V425h32.3v40.3h32.2v40.3h32.3V546H284v8.1H155ZM1180 121v129h-32.3v-40.3h-32.2v-40.3h-32.3V129H1051V121h129Z"/>
</svg>
